<?xml version="1.0" encoding="UTF-8" standalone="no"?>
<!DOCTYPE svg PUBLIC "-//W3C//DTD SVG 1.1//EN" "http://www.w3.org/Graphics/SVG/1.1/DTD/svg11.dtd">
<svg xmlns="http://www.w3.org/2000/svg" xmlns:xlink="http://www.w3.org/1999/xlink" version="1.1" width="241.92pt" height="64.8pt" viewBox="0 0 241.92 64.8">
<g enable-background="new">
<g>
<clipPath id="cp0">
<path transform="matrix(1,0,0,-1,0,64.8)" d="M .000003605 0 L 241.92 0 L 241.92 64.8 L .000003605 64.8 Z " fill-rule="evenodd"/>
</clipPath>
<g clip-path="url(#cp0)">
<text fill="#009eff" xml:space="preserve" transform="matrix(1 0 -0 1 0 64.8)" font-size="48.096" font-family="Harrington"><tspan y="-19.368" x=".72"> </tspan></text>
<text fill="#009eff" xml:space="preserve" transform="matrix(1 0 -0 1 0 64.8)" font-size="48.096" font-family="Harrington"><tspan y="-19.368" x=".72"> </tspan></text>
</g>
<clipPath id="cp1">
<path transform="matrix(1,0,0,-1,0,64.8)" d="M .000003605 0 L 241.92 0 L 241.92 64.8 L .000003605 64.8 Z " fill-rule="evenodd"/>
</clipPath>
<g clip-path="url(#cp1)">
<text fill="#009eff" xml:space="preserve" transform="matrix(1 0 -0 1 0 64.8)" font-size="48.096" font-family="Harrington"><tspan y="-19.368" x="12.84 25.970208 39.100416 65.64941 91.09219 117.4969 142.9397 176.36643 199.98157">ilyanaDev</tspan></text>
<text fill="#009eff" xml:space="preserve" transform="matrix(1 0 -0 1 0 64.8)" font-size="48.096" font-family="Harrington"><tspan y="-19.368" x="12.84 25.970208 39.100416 65.64941 91.09219 117.4969 142.9397 176.36643 199.98157">ilyanaDev</tspan></text>
</g>
<clipPath id="cp2">
<path transform="matrix(1,0,0,-1,0,64.8)" d="M .000003605 0 L 241.92 0 L 241.92 64.8 L .000003605 64.8 Z " fill-rule="evenodd"/>
</clipPath>
<g clip-path="url(#cp2)">
<text fill="#009eff" xml:space="preserve" transform="matrix(1 0 -0 1 0 64.8)" font-size="48.096" font-family="Harrington"><tspan y="-19.368" x="223.2"> </tspan></text>
<text fill="#009eff" xml:space="preserve" transform="matrix(1 0 -0 1 0 64.8)" font-size="48.096" font-family="Harrington"><tspan y="-19.368" x="223.2"> </tspan></text>
</g>
</g>
</g>
</svg>
