<svg xmlns="http://www.w3.org/2000/svg" xmlns:xlink="http://www.w3.org/1999/xlink" width="322.56" height="86.4" version="1.1" viewBox="0 0 241.92 64.8"><g><g><clipPath id="cp0"><path fill-rule="evenodd" d="M .000003605 0 L 241.92 0 L 241.92 64.8 L .000003605 64.8 Z" transform="matrix(1,0,0,-1,0,64.8)"/></clipPath><clipPath id="cp1"><path fill-rule="evenodd" d="M .000003605 0 L 241.92 0 L 241.92 64.8 L .000003605 64.8 Z" transform="matrix(1,0,0,-1,0,64.8)"/></clipPath><g clip-path="url(#cp1)"><text fill="#009eff" font-family="Harrington" font-size="48.096" transform="matrix(1 0 -0 1 0 64.8)" xml:space="preserve"><tspan x="12.84 25.97 39.1 65.649 91.092 117.497 142.94 176.366 199.982" y="-19.368">ilyanaDev</tspan></text><text fill="#009eff" font-family="Harrington" font-size="48.096" transform="matrix(1 0 -0 1 0 64.8)" xml:space="preserve"><tspan x="12.84 25.97 39.1 65.649 91.092 117.497 142.94 176.366 199.982" y="-19.368">ilyanaDev</tspan></text></g><clipPath id="cp2"><path fill-rule="evenodd" d="M .000003605 0 L 241.92 0 L 241.92 64.8 L .000003605 64.8 Z" transform="matrix(1,0,0,-1,0,64.8)"/></clipPath></g></g></svg>